<mxfile host="Electron" agent="Mozilla/5.0 (Windows NT 10.0; Win64; x64) AppleWebKit/537.36 (KHTML, like Gecko) draw.io/26.0.9 Chrome/128.0.6613.186 Electron/32.2.5 Safari/537.36" version="26.0.9">
  <diagram name="Page-1" id="kMi61NyPcCNk2VD_IXgL">
    <mxGraphModel dx="1687" dy="984" grid="1" gridSize="10" guides="1" tooltips="1" connect="1" arrows="1" fold="1" page="1" pageScale="1" pageWidth="827" pageHeight="1169" math="0" shadow="0">
      <root>
        <mxCell id="0" />
        <mxCell id="1" parent="0" />
        <mxCell id="mQaGHORo1Vh2YD8DS4Wc-69" style="edgeStyle=orthogonalEdgeStyle;rounded=0;orthogonalLoop=1;jettySize=auto;html=1;" parent="1" source="mQaGHORo1Vh2YD8DS4Wc-3" target="mQaGHORo1Vh2YD8DS4Wc-68" edge="1">
          <mxGeometry relative="1" as="geometry" />
        </mxCell>
        <mxCell id="mQaGHORo1Vh2YD8DS4Wc-3" value="PORTKEY" style="rounded=1;whiteSpace=wrap;html=1;fillColor=#d5e8d4;strokeColor=#82b366;fontStyle=1" parent="1" vertex="1">
          <mxGeometry x="765" y="260" width="120" height="60" as="geometry" />
        </mxCell>
        <mxCell id="mQaGHORo1Vh2YD8DS4Wc-4" value="Python Package" style="swimlane;startSize=20;horizontal=0;html=1;fillColor=#dae8fc;strokeColor=#6c8ebf;" parent="1" vertex="1">
          <mxGeometry x="430" y="360" width="790" height="500" as="geometry" />
        </mxCell>
        <mxCell id="mQaGHORo1Vh2YD8DS4Wc-86" style="edgeStyle=orthogonalEdgeStyle;rounded=0;orthogonalLoop=1;jettySize=auto;html=1;" parent="mQaGHORo1Vh2YD8DS4Wc-4" source="mQaGHORo1Vh2YD8DS4Wc-17" edge="1">
          <mxGeometry relative="1" as="geometry">
            <mxPoint x="159.99999999999977" y="230" as="targetPoint" />
          </mxGeometry>
        </mxCell>
        <mxCell id="mQaGHORo1Vh2YD8DS4Wc-17" value="Tool System" style="swimlane;startSize=20;html=1;fillColor=#6d8764;fontColor=#ffffff;strokeColor=#3A5431;" parent="mQaGHORo1Vh2YD8DS4Wc-4" vertex="1">
          <mxGeometry x="60" y="270" width="200" height="210" as="geometry" />
        </mxCell>
        <mxCell id="mQaGHORo1Vh2YD8DS4Wc-80" style="edgeStyle=orthogonalEdgeStyle;rounded=0;orthogonalLoop=1;jettySize=auto;html=1;" parent="mQaGHORo1Vh2YD8DS4Wc-17" source="mQaGHORo1Vh2YD8DS4Wc-18" edge="1">
          <mxGeometry relative="1" as="geometry">
            <mxPoint x="-150" y="70" as="targetPoint" />
          </mxGeometry>
        </mxCell>
        <mxCell id="mQaGHORo1Vh2YD8DS4Wc-18" value="Tool Registry" style="rounded=1;whiteSpace=wrap;html=1;" parent="mQaGHORo1Vh2YD8DS4Wc-17" vertex="1">
          <mxGeometry x="40" y="50" width="120" height="40" as="geometry" />
        </mxCell>
        <mxCell id="mQaGHORo1Vh2YD8DS4Wc-19" value="API Tool Wrapper" style="rounded=1;whiteSpace=wrap;html=1;" parent="mQaGHORo1Vh2YD8DS4Wc-17" vertex="1">
          <mxGeometry x="40" y="140" width="120" height="40" as="geometry" />
        </mxCell>
        <mxCell id="mQaGHORo1Vh2YD8DS4Wc-81" style="edgeStyle=orthogonalEdgeStyle;rounded=0;orthogonalLoop=1;jettySize=auto;html=1;entryX=0.503;entryY=1.083;entryDx=0;entryDy=0;entryPerimeter=0;" parent="mQaGHORo1Vh2YD8DS4Wc-17" source="mQaGHORo1Vh2YD8DS4Wc-19" target="mQaGHORo1Vh2YD8DS4Wc-18" edge="1">
          <mxGeometry relative="1" as="geometry" />
        </mxCell>
        <mxCell id="mQaGHORo1Vh2YD8DS4Wc-9" value="Memory Config" style="swimlane;startSize=20;html=1;fillColor=#6d8764;fontColor=#ffffff;strokeColor=#3A5431;" parent="mQaGHORo1Vh2YD8DS4Wc-4" vertex="1">
          <mxGeometry x="540" y="260" width="200" height="200" as="geometry" />
        </mxCell>
        <mxCell id="mQaGHORo1Vh2YD8DS4Wc-10" value="Short Term - Redis" style="rounded=1;whiteSpace=wrap;html=1;" parent="mQaGHORo1Vh2YD8DS4Wc-9" vertex="1">
          <mxGeometry x="40" y="60" width="120" height="40" as="geometry" />
        </mxCell>
        <mxCell id="mQaGHORo1Vh2YD8DS4Wc-11" value="Long Term - Firestore" style="rounded=1;whiteSpace=wrap;html=1;" parent="mQaGHORo1Vh2YD8DS4Wc-9" vertex="1">
          <mxGeometry x="40" y="120" width="120" height="40" as="geometry" />
        </mxCell>
        <mxCell id="mQaGHORo1Vh2YD8DS4Wc-13" value="Configuration" style="swimlane;startSize=20;html=1;fillColor=#6d8764;fontColor=#ffffff;strokeColor=#3A5431;" parent="mQaGHORo1Vh2YD8DS4Wc-4" vertex="1">
          <mxGeometry x="60" y="15" width="200" height="210" as="geometry" />
        </mxCell>
        <mxCell id="mQaGHORo1Vh2YD8DS4Wc-14" value="YAML Loader" style="rounded=1;whiteSpace=wrap;html=1;" parent="mQaGHORo1Vh2YD8DS4Wc-13" vertex="1">
          <mxGeometry x="40" y="40" width="120" height="40" as="geometry" />
        </mxCell>
        <mxCell id="mQaGHORo1Vh2YD8DS4Wc-15" value="Hot Reload" style="rounded=1;whiteSpace=wrap;html=1;" parent="mQaGHORo1Vh2YD8DS4Wc-13" vertex="1">
          <mxGeometry x="40" y="100" width="120" height="40" as="geometry" />
        </mxCell>
        <mxCell id="mQaGHORo1Vh2YD8DS4Wc-16" value="Environment" style="rounded=1;whiteSpace=wrap;html=1;" parent="mQaGHORo1Vh2YD8DS4Wc-13" vertex="1">
          <mxGeometry x="40" y="160" width="120" height="40" as="geometry" />
        </mxCell>
        <mxCell id="mQaGHORo1Vh2YD8DS4Wc-38" style="edgeStyle=orthogonalEdgeStyle;rounded=0;orthogonalLoop=1;jettySize=auto;html=1;" parent="mQaGHORo1Vh2YD8DS4Wc-13" source="mQaGHORo1Vh2YD8DS4Wc-14" target="mQaGHORo1Vh2YD8DS4Wc-15" edge="1">
          <mxGeometry relative="1" as="geometry" />
        </mxCell>
        <mxCell id="mQaGHORo1Vh2YD8DS4Wc-39" style="edgeStyle=orthogonalEdgeStyle;rounded=0;orthogonalLoop=1;jettySize=auto;html=1;" parent="mQaGHORo1Vh2YD8DS4Wc-13" source="mQaGHORo1Vh2YD8DS4Wc-15" target="mQaGHORo1Vh2YD8DS4Wc-16" edge="1">
          <mxGeometry relative="1" as="geometry" />
        </mxCell>
        <mxCell id="mQaGHORo1Vh2YD8DS4Wc-56" style="edgeStyle=orthogonalEdgeStyle;rounded=0;orthogonalLoop=1;jettySize=auto;html=1;entryX=0.5;entryY=0;entryDx=0;entryDy=0;" parent="mQaGHORo1Vh2YD8DS4Wc-4" source="mQaGHORo1Vh2YD8DS4Wc-12" target="mQaGHORo1Vh2YD8DS4Wc-9" edge="1">
          <mxGeometry relative="1" as="geometry" />
        </mxCell>
        <mxCell id="mQaGHORo1Vh2YD8DS4Wc-65" style="edgeStyle=orthogonalEdgeStyle;rounded=0;orthogonalLoop=1;jettySize=auto;html=1;entryX=0;entryY=0.5;entryDx=0;entryDy=0;" parent="mQaGHORo1Vh2YD8DS4Wc-4" source="mQaGHORo1Vh2YD8DS4Wc-5" target="mQaGHORo1Vh2YD8DS4Wc-12" edge="1">
          <mxGeometry relative="1" as="geometry" />
        </mxCell>
        <mxCell id="mQaGHORo1Vh2YD8DS4Wc-87" style="edgeStyle=orthogonalEdgeStyle;rounded=0;orthogonalLoop=1;jettySize=auto;html=1;entryX=1;entryY=0.5;entryDx=0;entryDy=0;" parent="mQaGHORo1Vh2YD8DS4Wc-4" source="mQaGHORo1Vh2YD8DS4Wc-5" target="mQaGHORo1Vh2YD8DS4Wc-13" edge="1">
          <mxGeometry relative="1" as="geometry" />
        </mxCell>
        <mxCell id="mQaGHORo1Vh2YD8DS4Wc-5" value="Core Crew" style="swimlane;startSize=20;html=1;fillColor=#6d8764;fontColor=#ffffff;strokeColor=#3A5431;" parent="mQaGHORo1Vh2YD8DS4Wc-4" vertex="1">
          <mxGeometry x="295" y="20" width="200" height="200" as="geometry" />
        </mxCell>
        <mxCell id="mQaGHORo1Vh2YD8DS4Wc-7" value="Interface" style="rounded=1;whiteSpace=wrap;html=1;" parent="mQaGHORo1Vh2YD8DS4Wc-5" vertex="1">
          <mxGeometry x="40" y="75" width="120" height="50" as="geometry" />
        </mxCell>
        <mxCell id="mQaGHORo1Vh2YD8DS4Wc-12" value="Local Cache" style="rounded=1;whiteSpace=wrap;html=1;fillColor=#b0e3e6;strokeColor=#0e8088;" parent="mQaGHORo1Vh2YD8DS4Wc-4" vertex="1">
          <mxGeometry x="580" y="100" width="120" height="40" as="geometry" />
        </mxCell>
        <mxCell id="mQaGHORo1Vh2YD8DS4Wc-72" value="" style="edgeStyle=orthogonalEdgeStyle;rounded=0;orthogonalLoop=1;jettySize=auto;html=1;" parent="1" source="mQaGHORo1Vh2YD8DS4Wc-21" target="mQaGHORo1Vh2YD8DS4Wc-70" edge="1">
          <mxGeometry relative="1" as="geometry" />
        </mxCell>
        <mxCell id="mQaGHORo1Vh2YD8DS4Wc-21" value="External APIs" style="swimlane;startSize=20;html=1;fillColor=#d5e8d4;strokeColor=#82b366;" parent="1" vertex="1">
          <mxGeometry x="390" y="890" width="400" height="140" as="geometry" />
        </mxCell>
        <mxCell id="mQaGHORo1Vh2YD8DS4Wc-22" value="GSuite&#xa;Cloud Function" style="rounded=1;whiteSpace=wrap;html=1;" parent="mQaGHORo1Vh2YD8DS4Wc-21" vertex="1">
          <mxGeometry x="10" y="60" width="120" height="60" as="geometry" />
        </mxCell>
        <mxCell id="mQaGHORo1Vh2YD8DS4Wc-23" value="Trading&#xa;Cloud Function" style="rounded=1;whiteSpace=wrap;html=1;" parent="mQaGHORo1Vh2YD8DS4Wc-21" vertex="1">
          <mxGeometry x="140" y="60" width="120" height="60" as="geometry" />
        </mxCell>
        <mxCell id="mQaGHORo1Vh2YD8DS4Wc-24" value="Finance&#xa;Cloud Function" style="rounded=1;whiteSpace=wrap;html=1;" parent="mQaGHORo1Vh2YD8DS4Wc-21" vertex="1">
          <mxGeometry x="270" y="60" width="120" height="60" as="geometry" />
        </mxCell>
        <mxCell id="mQaGHORo1Vh2YD8DS4Wc-25" value="Persistence" style="swimlane;startSize=20;html=1;fillColor=#ffe6cc;strokeColor=#d79b00;" parent="1" vertex="1">
          <mxGeometry x="900" y="900" width="350" height="140" as="geometry" />
        </mxCell>
        <mxCell id="mQaGHORo1Vh2YD8DS4Wc-26" value="Redis" style="shape=cylinder3;whiteSpace=wrap;html=1;boundedLbl=1;backgroundOutline=1;size=15;" parent="mQaGHORo1Vh2YD8DS4Wc-25" vertex="1">
          <mxGeometry x="20" y="60" width="100" height="60" as="geometry" />
        </mxCell>
        <mxCell id="mQaGHORo1Vh2YD8DS4Wc-27" value="Firestore" style="shape=cylinder3;whiteSpace=wrap;html=1;boundedLbl=1;backgroundOutline=1;size=15;" parent="mQaGHORo1Vh2YD8DS4Wc-25" vertex="1">
          <mxGeometry x="130" y="60" width="100" height="60" as="geometry" />
        </mxCell>
        <mxCell id="mQaGHORo1Vh2YD8DS4Wc-28" value="Secret&#xa;Manager" style="shape=cylinder3;whiteSpace=wrap;html=1;boundedLbl=1;backgroundOutline=1;size=15;" parent="mQaGHORo1Vh2YD8DS4Wc-25" vertex="1">
          <mxGeometry x="240" y="60" width="100" height="60" as="geometry" />
        </mxCell>
        <mxCell id="mQaGHORo1Vh2YD8DS4Wc-30" style="edgeStyle=orthogonalEdgeStyle;rounded=0;orthogonalLoop=1;jettySize=auto;html=1;" parent="1" source="mQaGHORo1Vh2YD8DS4Wc-3" target="mQaGHORo1Vh2YD8DS4Wc-4" edge="1">
          <mxGeometry relative="1" as="geometry" />
        </mxCell>
        <mxCell id="mQaGHORo1Vh2YD8DS4Wc-63" style="edgeStyle=orthogonalEdgeStyle;rounded=0;orthogonalLoop=1;jettySize=auto;html=1;entryX=0.488;entryY=-0.012;entryDx=0;entryDy=0;entryPerimeter=0;" parent="1" source="mQaGHORo1Vh2YD8DS4Wc-9" target="mQaGHORo1Vh2YD8DS4Wc-25" edge="1">
          <mxGeometry relative="1" as="geometry" />
        </mxCell>
        <mxCell id="mQaGHORo1Vh2YD8DS4Wc-68" value="https://portkey.ai/docs/integrations/agents/crewai" style="text;html=1;align=center;verticalAlign=middle;whiteSpace=wrap;rounded=0;fillColor=#fff2cc;strokeColor=#d6b656;" parent="1" vertex="1">
          <mxGeometry x="910" y="275" width="380" height="30" as="geometry" />
        </mxCell>
        <mxCell id="mQaGHORo1Vh2YD8DS4Wc-70" value="Or more tools ..." style="text;html=1;align=center;verticalAlign=middle;whiteSpace=wrap;rounded=0;" parent="1" vertex="1">
          <mxGeometry x="515" y="1070" width="150" height="30" as="geometry" />
        </mxCell>
        <mxCell id="mQaGHORo1Vh2YD8DS4Wc-77" style="edgeStyle=orthogonalEdgeStyle;rounded=0;orthogonalLoop=1;jettySize=auto;html=1;entryX=0.498;entryY=-0.031;entryDx=0;entryDy=0;entryPerimeter=0;exitX=0.494;exitY=1.058;exitDx=0;exitDy=0;exitPerimeter=0;" parent="1" source="mQaGHORo1Vh2YD8DS4Wc-19" target="mQaGHORo1Vh2YD8DS4Wc-21" edge="1">
          <mxGeometry relative="1" as="geometry" />
        </mxCell>
        <mxCell id="mQaGHORo1Vh2YD8DS4Wc-79" value="Tool Source" style="image;sketch=0;aspect=fixed;html=1;points=[];align=center;fontSize=12;image=img/lib/mscae/Azure_Repos.svg;" parent="1" vertex="1">
          <mxGeometry x="290" y="670" width="45" height="50" as="geometry" />
        </mxCell>
      </root>
    </mxGraphModel>
  </diagram>
</mxfile>
